# xmcd
#
# Track frame offsets: 
#        150
#        3099
#        17457
#        32389
#        45861
#        62688
#        80255
#        96809
#        122190
#
# Disc length: 1828 seconds
#
# Revision: 0
# Processed by: cddbd v1.5.2PL0 Copyright (c) Steve Scherf et al.
# Submitted via: ExactAudioCopy v0.99pb5
#
DISCID=54072209
DTITLE=JT Blues - Chase Away Your Blues
DYEAR=2010
DGENRE=Blues
TTITLE0=Pat's Cafe
TTITLE1=Chase Your Blues Away
TTITLE2=The Boss Told Me
TTITLE3=Sugar Free
TTITLE4=High Street
TTITLE5=Southern Belle
TTITLE6=Chicken Bone
TTITLE7=Cold Firey Lake
TTITLE8=Murphee's Boogie
EXTD=
EXTT0=
EXTT1=
EXTT2=
EXTT3=
EXTT4=
EXTT5=
EXTT6=
EXTT7=
EXTT8=
PLAYORDER=
